<?xml version="1.0" encoding="UTF-8" standalone="no"?>
<!-- Created with Inkscape (http://www.inkscape.org/) -->

<svg
   xmlns:dc="http://purl.org/dc/elements/1.1/"
   xmlns:cc="http://creativecommons.org/ns#"
   xmlns:rdf="http://www.w3.org/1999/02/22-rdf-syntax-ns#"
   xmlns:svg="http://www.w3.org/2000/svg"
   xmlns="http://www.w3.org/2000/svg"
   xmlns:sodipodi="http://sodipodi.sourceforge.net/DTD/sodipodi-0.dtd"
   xmlns:inkscape="http://www.inkscape.org/namespaces/inkscape"
   width="210mm"
   height="297mm"
   viewBox="0 0 210 297"
   version="1.1"
   id="svg8"
   inkscape:export-filename="D:\KOODAUS\Love2d\upo\maingame_area.png"
   inkscape:export-xdpi="96"
   inkscape:export-ydpi="96"
   inkscape:version="0.92.4 (5da689c313, 2019-01-14)"
   sodipodi:docname="upo bg.svg">
  <defs
     id="defs2" />
  <sodipodi:namedview
     id="base"
     pagecolor="#ffffff"
     bordercolor="#666666"
     borderopacity="1.0"
     inkscape:pageopacity="0.0"
     inkscape:pageshadow="2"
     inkscape:zoom="0.32"
     inkscape:cx="217.7928"
     inkscape:cy="3658.6419"
     inkscape:document-units="mm"
     inkscape:current-layer="layer1"
     showgrid="false"
     inkscape:window-width="1920"
     inkscape:window-height="1017"
     inkscape:window-x="3832"
     inkscape:window-y="-8"
     inkscape:window-maximized="1" />
  <metadata
     id="metadata5">
    <rdf:RDF>
      <cc:Work
         rdf:about="">
        <dc:format>image/svg+xml</dc:format>
        <dc:type
           rdf:resource="http://purl.org/dc/dcmitype/StillImage" />
        <dc:title />
      </cc:Work>
    </rdf:RDF>
  </metadata>
  <g
     inkscape:label="Taso 1"
     inkscape:groupmode="layer"
     id="layer1">
    <path
       style="opacity:1;fill:#000000;fill-opacity:1;fill-rule:nonzero;stroke:none;stroke-width:77.02597809;stroke-linecap:square;stroke-linejoin:round;stroke-miterlimit:4;stroke-dasharray:none;stroke-opacity:1;paint-order:normal"
       d="M 100.21289 -1877.4805 L 100.21289 -797.48047 L 2020.2129 -797.48047 L 2020.2129 -1877.4805 L 100.21289 -1877.4805 z M 1060.2129 -1787.4805 A 450 450 0 0 1 1510.2129 -1337.4805 A 450 450 0 0 1 1060.2129 -887.48047 A 450 450 0 0 1 610.21289 -1337.4805 A 450 450 0 0 1 1060.2129 -1787.4805 z "
       id="path815"
       inkscape:export-filename="D:\KOODAUS\Love2d\upo\upo\assets\level02.png"
       inkscape:export-xdpi="96"
       inkscape:export-ydpi="96"
       transform="scale(0.26458333)" />
    <path
       style="opacity:1;fill:#151515;fill-opacity:1;fill-rule:nonzero;stroke:none;stroke-width:77.02597809;stroke-linecap:square;stroke-linejoin:round;stroke-miterlimit:4;stroke-dasharray:none;stroke-opacity:1;paint-order:normal"
       d="M 117.89062 -3054.707 L 117.89062 -1974.707 L 2037.8906 -1974.707 L 2037.8906 -3054.707 L 117.89062 -3054.707 z M 1077.8906 -2739.707 A 225 225 0 0 1 1302.8906 -2514.707 A 225 225 0 0 1 1077.8906 -2289.707 A 225 225 0 0 1 852.89062 -2514.707 A 225 225 0 0 1 1077.8906 -2739.707 z "
       transform="scale(0.26458333)"
       id="path815-4"
       inkscape:export-filename="D:\KOODAUS\Love2d\upo\upo\assets\level03.png"
       inkscape:export-xdpi="96"
       inkscape:export-ydpi="96" />
  </g>
</svg>
